<?xml version="1.0" standalone="no"?><!DOCTYPE svg PUBLIC "-//W3C//DTD SVG 1.1//EN" "http://www.w3.org/Graphics/SVG/1.1/DTD/svg11.dtd"><svg t="1731664841229" class="icon" viewBox="0 0 1024 1024" version="1.1" xmlns="http://www.w3.org/2000/svg" p-id="18310" xmlns:xlink="http://www.w3.org/1999/xlink" width="128" height="128"><path d="M334.96 795.84c91.04 24 173.04-56.96 178.72-64l167.68-162A48 48 0 0 0 696 535.696l2.608-323.536a32 32 0 0 1 9.792-22.784l109.072-105.128a32 32 0 0 1 54.208 23.04v479.792a80 80 0 0 1-24.12 57.256l-301.72 294.48a48 48 0 0 1-67.368-0.32" fill="#0E72FF" p-id="18311"></path><path d="M696 792.928c-91.04 24-180.32-54.048-186-61.088L342.32 569.84a48 48 0 0 1-14.64-34.136l-2.608-323.536a32 32 0 0 0-9.792-22.784L206.208 84.256A32 32 0 0 0 152 107.296v479.792a80 80 0 0 0 24.12 57.256l302.128 294.864a48 48 0 0 0 66.96 0.096" fill="#20AFFF" p-id="18312"></path><path d="M498.384 224.8L372.456 103.048a16 16 0 0 1 11.12-27.504h251.568a16 16 0 0 1 11.128 27.496L520.64 224.784a16 16 0 0 1-22.256 0.008z" fill="#F64253" p-id="18313"></path></svg>