<?xml version="1.0" standalone="no"?><!DOCTYPE svg PUBLIC "-//W3C//DTD SVG 1.1//EN" "http://www.w3.org/Graphics/SVG/1.1/DTD/svg11.dtd"><svg t="1731924060015" class="icon" viewBox="0 0 1024 1024" version="1.1" xmlns="http://www.w3.org/2000/svg" p-id="15409" xmlns:xlink="http://www.w3.org/1999/xlink" width="128" height="128"><path d="M0 729.6V972.8a51.2 51.2 0 0 0 51.2 51.2h243.2v-76.8H120.32A43.52 43.52 0 0 1 76.8 903.68v-174.08zM76.8 120.32A43.52 43.52 0 0 1 120.32 76.8h174.08V0H51.2a51.2 51.2 0 0 0-51.2 51.2v243.2h76.8zM1024 51.2a51.2 51.2 0 0 0-51.2-51.2h-243.2v76.8h174.08A43.52 43.52 0 0 1 947.2 120.32v174.08h76.8zM947.2 903.68a43.52 43.52 0 0 1-43.52 43.52h-174.08v76.8H972.8a51.2 51.2 0 0 0 51.2-51.2v-243.2h-76.8zM86.528 439.04v-49.664l90.368-18.432h43.776v303.36H160.768v-249.6zM543.488 460.8a40.192 40.192 0 0 0-14.336-34.816 67.328 67.328 0 0 0-40.448-10.24 242.944 242.944 0 0 0-67.584 10.496v-49.664a269.312 269.312 0 0 1 78.08-9.984 125.696 125.696 0 0 1 76.8 21.248 76.8 76.8 0 0 1 27.136 64.768 116.224 116.224 0 0 1-8.96 47.616A160.512 160.512 0 0 1 563.2 545.792a702.976 702.976 0 0 1-68.608 60.928l-19.2 15.104v3.584h136.704v48.896h-209.92v-54.272q56.32-44.8 86.528-73.216a253.696 253.696 0 0 0 42.24-47.872 70.4 70.4 0 0 0 12.544-38.144zM744.704 673.024v-51.2a332.8 332.8 0 0 0 66.048 7.424 105.472 105.472 0 0 0 49.664-9.728 36.352 36.352 0 0 0 18.176-34.816 36.096 36.096 0 0 0-18.944-34.816 128 128 0 0 0-57.6-9.728h-23.296v-44.544h22.784a113.408 113.408 0 0 0 53.248-10.24 34.56 34.56 0 0 0 18.432-32.768 31.488 31.488 0 0 0-14.336-29.184 82.944 82.944 0 0 0-42.496-8.704 222.464 222.464 0 0 0-30.464 2.304 167.424 167.424 0 0 0-28.928 6.4v-48.128a200.96 200.96 0 0 1 29.952-6.144 252.928 252.928 0 0 1 36.352-2.56 141.056 141.056 0 0 1 80.64 19.2 70.656 70.656 0 0 1 27.904 62.976 65.024 65.024 0 0 1-49.92 66.56v2.56a69.12 69.12 0 0 1 43.008 24.32 72.704 72.704 0 0 1 14.848 46.592q0 89.088-125.952 89.088a358.4 358.4 0 0 1-69.12-4.864z" p-id="15410"></path></svg>