<?xml version="1.0" standalone="no"?><!DOCTYPE svg PUBLIC "-//W3C//DTD SVG 1.1//EN" "http://www.w3.org/Graphics/SVG/1.1/DTD/svg11.dtd"><svg t="1732180083142" class="icon" viewBox="0 0 1024 1024" version="1.1" xmlns="http://www.w3.org/2000/svg" p-id="56318" xmlns:xlink="http://www.w3.org/1999/xlink" width="128" height="128"><path d="M805.44 174.4A432.32 432.32 0 0 0 512 64a397.76 397.76 0 0 0-309.44 134.4 442.56 442.56 0 0 0-103.68 330.56c21.76 226.24 228.8 376.32 354.24 416a228.48 228.48 0 0 0 70.72 13.44 77.44 77.44 0 0 0 59.84-22.08 71.68 71.68 0 0 0 3.84-83.2c-40.32-71.36-52.8-130.24-34.56-161.6a69.76 69.76 0 0 1 62.4-26.24h5.76a199.04 199.04 0 0 1 24.32 0c55.68 0 160 2.88 225.92-62.4A207.04 207.04 0 0 0 928 448a376.96 376.96 0 0 0-122.56-273.6z m21.12 384c-47.36 46.72-133.76 45.12-179.84 44.16a217.6 217.6 0 0 0-33.92 0 128 128 0 0 0-115.2 57.92c-21.44 37.12-32 106.24 32 224a66.24 66.24 0 0 1 4.16 11.52 206.4 206.4 0 0 1-112.96-32c-109.44-55.36-243.2-177.92-258.88-342.72a375.68 375.68 0 0 1 88.96-280.96A331.2 331.2 0 0 1 512 128h15.04a373.76 373.76 0 0 1 235.52 93.76A310.72 310.72 0 0 1 864 449.6a143.68 143.68 0 0 1-37.44 108.48z" p-id="56319"></path><path d="M600 430.08a96 96 0 1 0 96-99.2 97.92 97.92 0 0 0-96 99.2z m128 0a32 32 0 1 1-32-35.2 33.6 33.6 0 0 1 32.64 35.2zM488.96 214.72a99.52 99.52 0 1 0 96 99.52 98.56 98.56 0 0 0-96-99.52z m0 134.72a35.52 35.52 0 1 1 32-35.2 34.24 34.24 0 0 1-32 35.2zM296.96 355.2a99.2 99.2 0 0 0 0 198.4 99.2 99.2 0 0 0 0-198.4z m0 134.4a35.2 35.2 0 0 1 0-70.4 35.2 35.2 0 0 1 0 70.4z" p-id="56320"></path></svg>