<?xml version="1.0" standalone="no"?><!DOCTYPE svg PUBLIC "-//W3C//DTD SVG 1.1//EN" "http://www.w3.org/Graphics/SVG/1.1/DTD/svg11.dtd"><svg t="1730444167200" class="icon" viewBox="0 0 1024 1024" version="1.1" xmlns="http://www.w3.org/2000/svg" p-id="1738" xmlns:xlink="http://www.w3.org/1999/xlink" width="128" height="128"><path d="M967.11 0H56.89C25.6 0 0 27.93 0 62.06v713.7c0 34.13 25.6 62.06 56.89 62.06h341.33v124.12H85.33c-14.22 0-28.44 15.52-28.44 31.03 0 15.52 14.22 31.03 28.44 31.03h853.33c14.22 0 28.44-15.51 28.44-31.03 0-15.51-14.22-31.03-28.44-31.03H625.78V837.82h341.33c31.29 0 56.89-27.93 56.89-62.06V62.06C1024 27.93 998.4 0 967.11 0zM562 934h-97.89v-99.18H562V934z m385-180H80V77h867v677zM194 551.87V416.19c0-13.57 15.91-27.14 31.82-27.14s31.82 13.57 31.82 27.14v135.68c0 13.57-15.91 27.13-31.82 27.13S194 565.43 194 551.87z m190.93 0V307.65c0-13.57 15.91-27.14 31.82-27.14s31.82 13.57 31.82 27.14v244.22c0 13.57-15.91 27.13-31.82 27.13-15.9 0-31.82-13.57-31.82-27.13z m190.94 0V361.92c0-13.57 15.91-27.13 31.82-27.13s31.82 13.57 31.82 27.13v189.95c0 13.57-15.91 27.13-31.82 27.13s-31.82-13.57-31.82-27.13z m190.93 0V253.38c0-13.57 15.91-27.14 31.82-27.14s31.82 13.57 31.82 27.14v298.49c0 13.57-15.91 27.13-31.82 27.13s-31.82-13.57-31.82-27.13z" p-id="1739"></path></svg>