<?xml version="1.0" standalone="no"?><!DOCTYPE svg PUBLIC "-//W3C//DTD SVG 1.1//EN" "http://www.w3.org/Graphics/SVG/1.1/DTD/svg11.dtd"><svg t="1732068670037" class="icon" viewBox="0 0 1024 1024" version="1.1" xmlns="http://www.w3.org/2000/svg" p-id="19956" xmlns:xlink="http://www.w3.org/1999/xlink" width="128" height="128"><path d="M516.667578 580.887273" p-id="19957"></path><path d="M516.984087 580.887273h-0.633018" p-id="19958"></path><path d="M648.033745 482.527418l171.884917 71.097251c5.207505 2.152262 8.424727 6.965062 8.424727 12.598924v29.278952c0 5.633862-3.217222 10.4448-8.422865 12.598924l-171.884917 71.145658c-4.336175 1.794793-8.890182 1.346095-12.790691-1.262312-3.904233-2.608407-6.060218-6.642967-6.060218-11.336611V645.585455c0-5.656204 3.245149-10.48576 8.480582-12.62499l96.080989-39.234094c5.233571-2.135505 8.476858-6.961338 8.480582-12.61568 0.003724-5.654342-3.23584-10.483898-8.467549-12.626851l-96.107055-39.368145c-5.229847-2.142953-8.467549-6.966924-8.467549-12.619404v-21.368087c0-4.691782 2.155985-8.728204 6.058357-11.334749 3.900509-2.608407 8.454516-3.058967 12.79069-1.266037zM466.642385 716.660364h-2.81693c-4.514909 0-8.400524-1.984698-11.04803-5.643171-2.645644-3.658473-3.315898-7.970444-1.902778-12.258211l80.436131-244.274269c1.874851-5.687855 6.9632-9.370531 12.952669-9.370531h3.075724c4.518633 0 8.406109 1.98656 11.051753 5.648756 2.645644 3.660335 3.312175 7.976029 1.897192 12.265658l-80.698647 244.272408c-1.878575 5.682269-6.9632 9.35936-12.947084 9.35936zM394.815302 495.128204v21.368087c0 5.650618-3.237702 10.476451-8.467549 12.619404l-96.108917 39.368145c-5.231709 2.142953-8.469411 6.970647-8.467549 12.624989 0.003724 5.654342 3.247011 10.478313 8.482444 12.61568l96.080989 39.235956c5.235433 2.139229 8.480582 6.968785 8.480582 12.62499v21.062749c0 4.693644-2.155985 8.728204-6.060218 11.336611-3.900509 2.608407-8.454516 3.057105-12.790691 1.262312l-171.884917-71.145658c-5.205644-2.154124-8.422865-6.965062-8.422865-12.598924v-29.278952c0-5.633862 3.217222-10.446662 8.424727-12.598924l171.884917-71.097251c4.336175-1.792931 8.890182-1.342371 12.79069 1.266037 3.902371 2.606545 6.058356 6.642967 6.058357 11.334749z" p-id="19959"></path><path d="M425.397527 148.143011h376.042589c25.914647 0 49.466647 10.593745 66.524626 27.651724 17.061702 17.061702 27.653585 40.613702 27.653585 66.526487v579.50208c0 25.918371-10.591884 49.470371-27.649862 66.528349-17.057978 17.057978-40.609978 27.649862-66.528349 27.649862H221.938036c-25.918371 0-49.470371-10.591884-66.528349-27.649862-17.057978-17.057978-27.649862-40.609978-27.649862-66.528349V439.560378c0-5.121862 1.016553-10.094778 3.027317-14.870342 1.977251-4.695505 4.848175-8.88832 8.590429-12.539345l259.314036-253.093702c3.662196-3.576553 7.760058-6.28736 12.274968-8.124974 4.561455-1.856233 9.376116-2.789004 14.430952-2.789004z m376.042589 39.410967h-375.677672L167.170793 439.942051v381.881251c0 15.039767 6.168204 28.729716 16.102865 38.664378 9.934662 9.934662 23.624611 16.102865 38.664378 16.102865h579.50208c15.039767 0 28.729716-6.168204 38.664379-16.102865 9.934662-9.934662 16.102865-23.624611 16.102865-38.664378V242.321222c0-15.034182-6.170065-28.725993-16.106589-38.662517-9.934662-9.934662-23.622749-16.104727-38.660655-16.104727z" p-id="19960"></path></svg>