<?xml version="1.0" standalone="no"?><!DOCTYPE svg PUBLIC "-//W3C//DTD SVG 1.1//EN" "http://www.w3.org/Graphics/SVG/1.1/DTD/svg11.dtd"><svg t="1732240992757" class="icon" viewBox="0 0 1024 1024" version="1.1" xmlns="http://www.w3.org/2000/svg" p-id="57620" xmlns:xlink="http://www.w3.org/1999/xlink" width="128" height="128"><path d="M967.224697 53.236975c90.479305 90.81722 59.339925 197.475487 0 257.015089l-165.255803 165.880433 33.89902 34.037258c18.738924 18.820842 18.759403 49.340712 0 68.161555l-81.959751 82.277186a47.886654 47.886654 0 0 1-67.900438 0l-33.9195-34.078217-298.614475 295.696118c-20.674255 20.766414-61.234297 37.626325-90.540745 37.641685H195.693037L116.395647 1014.067603a63.865938 63.865938 0 0 1-79.420269-8.918909l-18.221811-18.27813a64.449609 64.449609 0 0 1-8.883069-79.722344l53.999843-79.578987v-67.506204c0-29.352527 16.808712-70.055927 37.518807-90.85306l294.595335-299.67942-33.960459-34.098697c-18.759403-18.820842-18.738924-49.340712 0-68.156434l81.959751-82.277187a47.886654 47.886654 0 0 1 67.900438 0l34.001419 34.119177 165.255802-165.875313c70.398962-70.660078 185.05455-71.300068 256.078143 0zM308.193138 880.806208l298.619595-299.699899-165.537398-166.15691-294.595335 299.69478a63.947857 63.947857 0 0 0-18.759403 45.43933v86.06081l-63.881298 95.297155 18.221811 18.27813 94.93876-64.101454h85.738255c17.100548 0 33.161751-2.677721 45.260133-14.822182zM921.964565 264.838334c13.818676-13.880115 78.780278-87.100155 0-166.15691-45.639007-45.818204-119.898391-45.818204-165.537399 0l-210.536414 211.314644-67.941398-68.197395-59.339925 59.539602 301.333155 302.474899 59.339925-59.560082-67.859479-68.115475z" p-id="57621"></path></svg>