<?xml version="1.0" standalone="no"?><!DOCTYPE svg PUBLIC "-//W3C//DTD SVG 1.1//EN" "http://www.w3.org/Graphics/SVG/1.1/DTD/svg11.dtd"><svg t="1731924120714" class="icon" viewBox="0 0 1024 1024" version="1.1" xmlns="http://www.w3.org/2000/svg" p-id="16440" xmlns:xlink="http://www.w3.org/1999/xlink" width="128" height="128"><path d="M230.076858 17.952314C104.697896 17.952314 2.585133 119.921459 2.585133 245.444039s102.112763 227.491725 227.491725 227.491725 227.491725-102.112763 227.491725-227.491725-101.969144-227.491725-227.491725-227.491725zM791.050771 564.13352c-125.378962 0-227.491725 102.112763-227.491725 227.491725s102.112763 227.491725 227.491725 227.491726c125.522581 0 227.491725-102.112763 227.491725-227.491726s-101.969144-227.491725-227.491725-227.491725z m0 368.955961c-77.984853 0-141.320617-63.479383-141.320617-141.320617s63.479383-141.320617 141.320617-141.320617c77.984853 0 141.320617 63.479383 141.320617 141.320617s-63.335764 141.320617-141.320617 141.320617zM414.483029 569.01655H45.670687c-23.840673 0-43.085554 19.244881-43.085554 43.085554V980.914446c0 23.840673 19.244881 43.085554 43.085554 43.085554h368.812342c23.840673 0 43.085554-19.244881 43.085554-43.085554V612.102104c0-23.840673-19.244881-43.085554-43.085554-43.085554z m-43.085554 368.812342H88.756241V655.187658h282.641234V937.828892zM775.970827 490.888079c11.058626 0 22.117251-4.164937 30.447125-12.63843l202.358486-202.358485c8.042637-8.042637 12.638429-19.101262 12.638429-30.447125s-4.595792-22.404488-12.638429-30.447125L806.417952 12.638429a43.085554 43.085554 0 0 0-60.894249 0L543.165217 214.996914a43.085554 43.085554 0 0 0 0 60.89425L745.523703 478.249649c8.473492 8.329874 19.532118 12.638429 30.447124 12.63843z m0-386.908275l141.464236 141.464235-141.464236 141.464236L634.506592 245.444039l141.464235-141.464235z" p-id="16441"></path></svg>