<?xml version="1.0" standalone="no"?><!DOCTYPE svg PUBLIC "-//W3C//DTD SVG 1.1//EN" "http://www.w3.org/Graphics/SVG/1.1/DTD/svg11.dtd"><svg t="1730444234234" class="icon" viewBox="0 0 1024 1024" version="1.1" xmlns="http://www.w3.org/2000/svg" p-id="1899" xmlns:xlink="http://www.w3.org/1999/xlink" width="128" height="128"><path d="M895.21025251 846.01995037c80.77995463-92.45666987 124.90440931-209.59872341 124.90440932-333.53327503 0-135.62873059-52.81708032-263.14232491-148.72239332-359.04763676C776.96211741 59.00772352 651.87957191 6.38973725 518.58641693 4.79348963c-2.19003904-0.68227641-11.7081509-0.67412651-13.91216186 0.0174649C371.91551203 6.76464071 247.39182819 59.34536931 153.29815893 153.43903858 59.00888861 247.72947285 6.40603819 372.57683171 4.65959481 505.64644181c-0.48783929 1.87684409-0.49715427 9.78706432-0.02444971 11.63596459 1.23182421 133.83455175 53.89056114 259.47945301 148.66301383 354.25190571 95.90531186 95.90531186 223.41774222 148.72239331 359.04763677 148.72239331 135.62873059 0 263.14232491-52.81708032 359.04763676-148.72239331 6.9857701-6.9857701 13.7153957-14.1589925 20.24010525-21.47192946 0.57749049-0.51578311 1.13984512-1.05601593 1.67425592-1.63932729C894.00986397 847.65811371 894.62926905 846.84776448 895.21025251 846.01995037zM51.70875847 534.80504775l213.3349467 0c1.50426965 74.72794965 10.52872021 144.79871886 25.60634084 207.20376946-70.18952704 18.98615922-114.70984192 43.65873607-137.7582262 59.05770268C93.65015893 727.42252771 56.52078933 635.28603875 51.70875847 534.80504775zM152.32713614 224.60657323c22.85860523 15.42458141 67.40453376 40.34748075 138.05861433 59.46054883-14.78887538 61.58538638-23.69689714 130.59198976-25.30828174 204.15448064L51.79840853 488.2216027C56.97602901 388.81409024 93.7956955 297.65677397 152.32713614 224.60657323zM972.89318173 488.22043762L759.61295758 488.22043762c-1.61021952-73.53571101-10.51358435-142.51902862-25.29198193-204.0881152 70.49107911-18.99314517 115.1837093-43.74140131 138.3159239-59.1881034C931.0099968 297.93853326 967.72254834 388.96777785 972.89318173 488.22043762zM713.02019755 488.22043762L534.94592739 488.22043762 534.94592739 310.68290731c59.4023333-1.24579613 110.48228637-7.34320867 153.9104916-15.96714212C703.14697614 354.03543325 711.43675677 419.72263139 713.02019755 488.22043762zM534.94592739 264.09596928L534.94592739 54.52053049c41.91695075 11.83156679 82.80699221 55.98512811 114.83209274 125.17336064 10.02457998 21.65821667 18.93842375 45.10362624 26.6972854 69.99741895C636.62265003 257.39661539 589.66663054 262.89790976 534.94592739 264.09596928zM488.36131726 54.92454173l0 209.12951296c-54.05006962-1.28188871-100.55550635-6.82859065-140.08332401-14.56649558 7.74489088-24.81811342 16.63777678-48.1959936 26.63441408-69.79599588C406.58705408 111.26594333 446.9298779 67.32894094 488.36131726 54.92454173zM488.36131726 310.65962041l0 177.56081721L311.67022877 488.22043762c1.58344078-68.5094491 9.87555043-134.20712619 24.17076565-193.53494528C378.88963925 303.25936128 429.49688775 309.34745998 488.36131726 310.65962041zM311.62947811 534.80504775l176.73183915 0 0 180.52860473c-58.72005689 1.35873195-109.24929821 7.46778851-152.25952142 16.04631438C321.50968661 671.2068699 313.10929806 604.43687709 311.62947811 534.80504775zM488.36131726 761.93805426l0 208.1107547c-41.43260331-12.40439922-81.77426318-56.3414016-113.44774599-124.76818659-9.87555043-21.33570674-18.67063523-44.41203485-26.34799673-68.89366642C387.97812622 768.7340453 434.37295616 763.24439381 488.36131726 761.93805426zM534.94592739 970.45282019L534.94592739 761.86586795c54.50414421 1.16662386 101.37982749 6.67024611 141.21734714 14.40000114-7.68667648 24.5258752-16.49456811 47.64295395-26.3852544 69.01358933C617.75291961 914.46769209 576.86287701 958.62125341 534.94592739 970.45282019zM534.94592739 715.27543694L534.94592739 534.80504775l178.11502194 0c-1.47749091 69.51423659-9.85342862 136.17478542-24.40013141 196.26987406C645.29548288 722.50454585 594.28306034 716.47116857 534.94592739 715.27543694zM759.64788622 534.80504775l213.33494671 0c-4.80271701 100.28189696-41.79353486 192.25422051-100.83027968 265.82486016-23.28939406-15.55148914-67.8516224-40.16235747-138.01669974-59.014623C749.15525973 679.30919936 758.1459456 609.37698077 759.64788622 534.80504775zM841.40817749 189.71614322c-20.85485341 13.16468395-59.51643421 33.40013227-119.30531384 49.48603221-21.95394787-71.74386119-52.46313472-130.84929934-88.81708374-171.77776356C713.38695111 89.21419435 784.8769957 132.09285291 841.40817749 189.71614322zM391.40464754 67.42441301c-36.30155549 40.86908473-66.77697877 99.86158706-88.72277561 171.46573256-59.62354915-16.20349383-98.26999523-36.52160739-118.99095382-49.59314831C240.15806237 131.88444387 311.49791346 89.16180195 391.40464754 67.42441301zM184.22649287 836.22473614c20.80362382-13.12509838 59.27658951-33.25808867 118.70686663-49.30673095 21.92716914 71.23040711 52.31061219 129.9190272 88.47128804 170.63093248C311.75056498 935.88024206 240.60864512 893.36251619 184.22649287 836.22473614zM633.28577991 957.54893767c36.18279765-40.73635499 66.58021262-99.47154773 88.51087474-170.76016924 59.14735275 15.95549923 97.81708459 35.98952448 118.93623239 49.16119438C784.30765511 893.22512953 713.06677021 935.84647851 633.28577991 957.54893767z" p-id="1900"></path></svg>