<?xml version="1.0" standalone="no"?><!DOCTYPE svg PUBLIC "-//W3C//DTD SVG 1.1//EN" "http://www.w3.org/Graphics/SVG/1.1/DTD/svg11.dtd"><svg t="1731664801650" class="icon" viewBox="0 0 1024 1024" version="1.1" xmlns="http://www.w3.org/2000/svg" p-id="17256" xmlns:xlink="http://www.w3.org/1999/xlink" width="128" height="128"><path d="M591.584 64a56.992 56.992 0 0 0-18.048 3.2c51.68 33.984-9.28 83.2 19.2 124.8A71.52 71.52 0 0 1 627.2 120.48c9.12-7.584 14.976-10.304 13.024-22.848C637.056 77.088 609.664 64 591.584 64z m73.6 13.248c-7.136 35.936-16 37.248-42.336 60.384a58.272 58.272 0 0 0-16.864 70.112c-108.8-42.24-248.256-67.776-350.496 5.312-36.768 26.272-59.2 64-104.544 79.392-29.312 10.048-58.112 7.072-76.48 36.128a45.216 45.216 0 0 0 1.792 58.624c5.472 5.6 16 9.184 20.352 14.88 2.528 3.2 2.464 6.4 4.864 10.656a83.2 83.2 0 0 0 18.048 26.496c4.704 3.872 20.864 7.648 23.616 11.776 3.456 5.152-5.504 25.6 2.016 28.8 5.056 2.336 19.872-23.808 21.312-26.112-2.944 20.576-6.816 57.088 16.32 26.688 10.976-14.432 11.648-19.2 30.112-22.4a262.4 262.4 0 0 1 35.744-3.712 267.584 267.584 0 0 1 275.904 243.904c-3.456-16-24.352-41.6-43.808-35.52-8.288 2.56-11.36 16.864-16.8 25.152a120.736 120.736 0 0 1-25.12 27.776 149.984 149.984 0 0 0-2.304-46.464c-5.824 23.936-17.504 63.648-46.912 57.216a52.864 52.864 0 0 1-42.496-36.544c-3.808-24.32 21.888-52.832-19.424-54.848-82.88-4.064-63.712 117.824-14.784 149.6a104.704 104.704 0 0 0-32.48 9.056 220.576 220.576 0 0 0 328.832-157.504 225.856 225.856 0 0 1-0.48 98.72 230.816 230.816 0 0 1-17.728 49.888 216.992 216.992 0 0 1-41.6 57.92c-10.048 9.952-28.48 19.968-34.816 30.112a429.088 429.088 0 0 0 112.64-30.976A372.416 372.416 0 0 1 483.2 960a370.848 370.848 0 0 0 297.6-189.088 373.024 373.024 0 0 1-62.24 149.376 368.992 368.992 0 0 0 159.2-249.056 371.904 371.904 0 0 1 6.688 112 397.376 397.376 0 0 0 60.448-338.112 504.16 504.16 0 0 0-54.048-126.784 474.816 474.816 0 0 0-30.048-44.608c-4.256-5.536-27.008-25.792-27.008-32q-0.288 0.928-0.48 0c0 103.936-112 170.656-205.792 142.816a160 160 0 0 0 145.472-133.344 160 160 0 0 0-107.808-173.952z" fill="#EA2845" p-id="17257"></path></svg>