<?xml version="1.0" standalone="no"?><!DOCTYPE svg PUBLIC "-//W3C//DTD SVG 1.1//EN" "http://www.w3.org/Graphics/SVG/1.1/DTD/svg11.dtd"><svg t="1730961187212" class="icon" viewBox="0 0 1024 1024" version="1.1" xmlns="http://www.w3.org/2000/svg" p-id="1738" xmlns:xlink="http://www.w3.org/1999/xlink" width="128" height="128"><path d="M842.732919 585.142857c-12.720497 0-31.801242 0-44.521739 6.360249l-76.322981-127.204969c57.242236-50.881988 89.043478-120.84472 89.043478-197.167702 0-146.285714-120.84472-267.130435-267.130435-267.130435-139.925466 0-260.770186 120.84472-260.770186 267.130435 0 82.68323 38.161491 152.645963 101.763975 203.52795-19.080745 25.440994-50.881988 76.322981-69.962733 108.124224-25.440994-6.360248-44.521739-12.720497-69.962733-12.720497-127.204969 0-228.968944 101.763975-228.968944 228.968944s101.763975 228.968944 228.968944 228.968944 228.968944-101.763975 228.968944-228.968944c0-69.962733-31.801242-133.565217-89.043478-178.086957L448.397516 508.819876c31.801242 12.720497 63.602484 19.080745 101.763975 19.080745 38.161491 0 76.322981-6.360248 108.124223-25.440994l69.962733 120.844721c-38.161491 31.801242-63.602484 76.322981-63.602484 133.565217 0 95.403727 76.322981 171.726708 171.726708 171.726708s171.726708-76.322981 171.726708-171.726708-69.962733-171.726708-165.36646-171.726708z m-597.863354 356.173913c-82.68323 0-152.645963-69.962733-152.645963-152.645963 0-82.68323 69.962733-152.645963 152.645963-152.645962 82.68323 0 152.645963 69.962733 152.645963 152.645962-6.360248 89.043478-69.962733 152.645963-152.645963 152.645963zM359.354037 267.130435c0-101.763975 82.68323-190.807453 190.807454-190.807454s190.807453 82.68323 190.807453 190.807454-82.68323 190.807453-190.807453 190.807453-190.807453-89.043478-190.807454-190.807453z m483.378882 591.503105c-57.242236 0-95.403727-44.521739-95.403726-95.403726 0-57.242236 44.521739-95.403727 95.403726-95.403727 57.242236 0 95.403727 44.521739 95.403727 95.403727 6.360248 50.881988-38.161491 95.403727-95.403727 95.403726z" p-id="1739"></path></svg>