<?xml version="1.0" standalone="no"?><!DOCTYPE svg PUBLIC "-//W3C//DTD SVG 1.1//EN" "http://www.w3.org/Graphics/SVG/1.1/DTD/svg11.dtd"><svg t="1732178881077" class="icon" viewBox="0 0 1024 1024" version="1.1" xmlns="http://www.w3.org/2000/svg" p-id="54386" xmlns:xlink="http://www.w3.org/1999/xlink" width="128" height="128"><path d="M512.5 54c159.003 0 287.9 128.897 287.9 287.9 0 25.623-3.347 50.464-9.628 74.11C897.85 459.128 971 563.814 971 683.1 971 842.102 842.102 971 683.1 971c-62.387 0-121.733-19.95-170.605-55.969C464.753 950.211 405.755 971 341.9 971 182.897 971 54 842.103 54 683.1c0-119.287 73.15-223.973 180.23-267.097-6.283-23.64-9.63-48.48-9.63-74.103C224.6 182.897 353.497 54 512.5 54zM257.483 475.639l-0.118 0.046C174.552 509.406 118 590.622 118 683.1 118 806.756 218.244 907 341.9 907s223.9-100.244 223.9-223.9c0-19.462-2.477-38.558-7.302-56.96a289.41 289.41 0 0 1-45.998 3.66c-110.726 0-206.853-62.508-255.017-154.161z m510.028-0.005l-1.329 2.516c-31.732 58.958-83.417 105.585-146.017 130.843 6.365 23.958 9.635 48.82 9.635 74.107 0 71.56-26.108 137.022-69.318 187.38C596.439 894.076 638.738 907 683.1 907 806.756 907 907 806.756 907 683.1c0-92.524-56.608-173.775-139.49-207.466zM512.5 118c-123.656 0-223.9 100.244-223.9 223.9s100.244 223.9 223.9 223.9 223.9-100.244 223.9-223.9S636.156 118 512.5 118z" p-id="54387"></path></svg>