<?xml version="1.0" standalone="no"?><!DOCTYPE svg PUBLIC "-//W3C//DTD SVG 1.1//EN" "http://www.w3.org/Graphics/SVG/1.1/DTD/svg11.dtd"><svg t="1730961353394" class="icon" viewBox="0 0 1024 1024" version="1.1" xmlns="http://www.w3.org/2000/svg" p-id="1899" xmlns:xlink="http://www.w3.org/1999/xlink" width="128" height="128"><path d="M660.67093333 399.56373333m-152.26666666 0a152.26666667 152.26666667 0 1 0 304.53333333 0 152.26666667 152.26666667 0 1 0-304.53333333 0Z" p-id="1900"></path><path d="M256.2592 881.67253333v80.21333334H84.59946667c-43.2352 0-78.912-34.29333333-78.912-77.408V138.45546667c0-43.11466667 35.6768-77.408 78.912-77.408h853.7344c43.2352 0 78.912 34.29333333 78.912 77.408v100.24533333h-80.21333334v-97.44H85.9008v740.41173333h170.35946667zM175.7568 287.65866667H362.26133333v74.60266666H175.75466667v-74.60266666z m0 223.80693333H362.26133333v74.60266667H175.75466667V511.46666667z m785.8624 335.1392l5.17973333 44.70506667-612.22186666 0.23466666 5.14133333-44.70613333C376.67093333 699.4816 506.3136 587.50933333 660.68266667 587.50933333c154.28053333 0 283.87413333 111.84533333 300.93653333 259.09653334zM660.68266667 667.72266667c-97.53066667 0-181.00693333 59.83466667-210.8736 143.57333333l421.6896-0.16106667c-29.91786667-83.65866667-113.35253333-143.41333333-210.816-143.41333333z" p-id="1901"></path></svg>