<?xml version="1.0" standalone="no"?><!DOCTYPE svg PUBLIC "-//W3C//DTD SVG 1.1//EN" "http://www.w3.org/Graphics/SVG/1.1/DTD/svg11.dtd"><svg t="1732242300256" class="icon" viewBox="0 0 1024 1024" version="1.1" xmlns="http://www.w3.org/2000/svg" p-id="60287" xmlns:xlink="http://www.w3.org/1999/xlink" width="128" height="128"><path d="M512 0C229.248 0 0 229.248 0 512s229.248 512 512 512 512-229.248 512-512S794.752 0 512 0z m208.384 764.074667a184.661333 184.661333 0 0 1-46.592 63.488 205.525333 205.525333 0 0 1-70.144 39.936c-26.965333 9.216-55.808 13.824-86.528 13.824s-58.368-4.266667-82.944-12.8c-24.576-8.533333-46.421333-19.797333-65.536-33.792s-35.498667-30.037333-49.152-48.128a280.021333 280.021333 0 0 1-32.768-54.784l71.68-43.008c6.144 14.336 14.165333 28.16 24.064 41.472 9.898667 13.312 21.333333 25.088 34.304 35.328a157.738667 157.738667 0 0 0 99.328 33.792c17.066667 0 33.621333-2.389333 49.664-7.168 16.042667-4.778667 30.208-11.946667 42.496-21.504 12.288-9.557333 22.186667-21.333333 29.696-35.328 7.509333-13.994667 11.264-30.549333 11.264-49.664 0-18.432-3.584-34.304-10.752-47.616a126.08 126.08 0 0 0-29.184-35.84 213.333333 213.333333 0 0 0-44.032-28.672c-17.066667-8.533333-35.498667-17.578667-55.296-27.136a1908.266667 1908.266667 0 0 1-70.144-34.816 323.925333 323.925333 0 0 1-63.488-43.008 202.752 202.752 0 0 1-45.568-56.832c-11.605333-21.504-17.408-46.592-17.408-75.264 0-23.893333 4.437333-47.616 13.312-71.168a190.890667 190.890667 0 0 1 38.912-62.976c17.066667-18.432 38.4-33.450667 64-45.056s55.466667-17.408 89.6-17.408c25.258667 0 48.64 3.242667 70.144 9.728a255.146667 255.146667 0 0 1 102.912 58.88c12.970667 12.288 23.552 24.234667 31.744 35.84l-64.512 52.224a178.005333 178.005333 0 0 0-54.784-50.688 179.370667 179.370667 0 0 0-39.424-17.408 155.050667 155.050667 0 0 0-46.08-6.656c-19.797333 0-37.034667 3.072-51.712 9.216a114.858667 114.858667 0 0 0-37.376 24.576c-10.24 10.24-17.92 22.016-23.04 35.328-5.12 13.312-7.68 26.794667-7.68 40.448 0 17.066667 3.754667 31.914667 11.264 44.544 7.509333 12.629333 18.090667 24.405333 31.744 35.328s30.378667 21.504 50.176 31.744c19.797333 10.24 41.984 20.821333 66.56 31.744 27.306667 12.288 52.053333 25.088 74.24 38.4 22.186667 13.312 40.96 27.818667 56.32 43.52 15.36 15.701333 27.136 33.450667 35.328 53.248 8.192 19.797333 12.288 43.008 12.288 69.632 0 31.402667-5.632 59.562667-16.896 84.48z" p-id="60288"></path></svg>