<?xml version="1.0" standalone="no"?><!DOCTYPE svg PUBLIC "-//W3C//DTD SVG 1.1//EN" "http://www.w3.org/Graphics/SVG/1.1/DTD/svg11.dtd"><svg t="1732086279914" class="icon" viewBox="0 0 1183 1024" version="1.1" xmlns="http://www.w3.org/2000/svg" p-id="51043" xmlns:xlink="http://www.w3.org/1999/xlink" width="147.875" height="128"><path d="M386.130545 746.649935H128.858911A128.858911 128.858911 0 0 1 0 618.147974V128.858911A128.858911 128.858911 0 0 1 128.858911 0h257.271634a128.858911 128.858911 0 0 1 128.85891 128.858911v489.289063A128.858911 128.858911 0 0 1 386.130545 746.917647zM128.858911 85.667974a43.101699 43.101699 0 0 0-43.190937 43.190937v489.289063a43.101699 43.101699 0 0 0 43.101699 42.833987h257.360872a43.101699 43.101699 0 0 0 42.833987-42.833987V128.858911a43.101699 43.101699 0 0 0-42.833987-42.833987zM1146.076863 378.813072a128.769673 128.769673 0 0 0-91.11146-37.747451H797.693769a128.858911 128.858911 0 0 0-128.858911 130.018998v424.41342a128.858911 128.858911 0 0 0 128.858911 128.501961h257.271634v-1.160087a128.858911 128.858911 0 0 0 128.858911-128.858911V469.835294a128.591198 128.591198 0 0 0-37.747451-91.022222z m-48.455948 516.684967a42.833987 42.833987 0 0 1-42.833987 42.833987H797.693769a42.833987 42.833987 0 0 1-42.833987-43.101699V471.084619a42.744749 42.744749 0 0 1 42.833987-42.833987h257.271634a42.655512 42.655512 0 0 1 42.833987 42.833987zM1126.444619 174.459259H739.957124a42.833987 42.833987 0 1 1 0-85.667974h386.130545a42.833987 42.833987 0 1 1 0 85.667974zM450.827712 968.672767H64.429455a42.833987 42.833987 0 1 1 0-85.667974h386.130545a42.833987 42.833987 0 1 1 0 85.667974z" p-id="51044"></path></svg>