<?xml version="1.0" standalone="no"?><!DOCTYPE svg PUBLIC "-//W3C//DTD SVG 1.1//EN" "http://www.w3.org/Graphics/SVG/1.1/DTD/svg11.dtd"><svg t="1610502626394" class="icon" viewBox="0 0 1024 1024" version="1.1" xmlns="http://www.w3.org/2000/svg" p-id="5817" xmlns:xlink="http://www.w3.org/1999/xlink" width="32" height="32"><defs><style type="text/css"></style></defs><path d="M604.137 626.455c-3.352 0-26.857-23.924-10.077-68.328 36.933-37.586 67.141-99.072 67.141-160.582 0-92.253-63.79-140.079-130.932-140.079-70.493 0-130.932 47.826-130.932 140.079 0 61.486 26.856 122.996 63.79 160.582 13.429 37.585-10.077 64.907-16.78 68.328-73.844 27.322-157.788 75.171-157.788 126.418v17.082c0 64.908 124.206 81.99 241.71 81.99 114.13 0 238.336-13.661 238.336-81.99v-17.082c-3.328-51.247-90.624-102.493-164.468-126.418z m0 0" p-id="5818"></path><path d="M825.693 503.459c-3.351 0-23.505-6.842-10.077-47.826 33.583-34.164 57.065-92.253 57.065-150.318 0-85.411-53.714-133.236-120.856-133.236-46.987 0-90.647 23.924-107.426 71.75 40.285 34.164 67.141 85.41 67.141 153.739 0 71.75-33.582 140.079-70.493 184.483 57.065 20.503 144.361 64.908 167.843 133.236 87.273-3.42 167.843-23.924 167.843-75.17v-17.083c3.398-51.246-77.172-95.65-151.04-119.575z m-604.253 0c3.351 0 23.505-6.842 10.077-47.826-33.56-34.164-57.065-92.253-57.065-150.318 3.352-85.411 57.065-133.236 120.856-133.236 47.01 0 90.647 23.924 107.427 71.75-40.286 34.164-67.142 85.41-67.142 153.739 0 71.75 33.559 140.079 70.493 184.483-57.065 20.503-144.36 64.908-167.843 133.236-87.273-3.42-167.843-23.924-167.843-75.17v-17.083c-0.023-51.246 80.547-95.65 151.04-119.575z m0 0" p-id="5819"></path></svg>