<?xml version="1.0" standalone="no"?><!DOCTYPE svg PUBLIC "-//W3C//DTD SVG 1.1//EN" "http://www.w3.org/Graphics/SVG/1.1/DTD/svg11.dtd"><svg t="1610503919909" class="icon" viewBox="0 0 1024 1024" version="1.1" xmlns="http://www.w3.org/2000/svg" p-id="20632" xmlns:xlink="http://www.w3.org/1999/xlink" width="32" height="32"><defs><style type="text/css"></style></defs><path d="M935.72608 982.00064l-165.1968-88.32512h-166.7072c-26.99776 0-48.384-21.36064-48.384-48.44544v-15.63648h42.7008v15.63648c0 2.88256 2.88256 5.72416 5.6832 5.72416h176.65536l112.52736 59.81696v-59.81696h82.56c2.88256 0 5.72416-2.84672 5.72416-5.72416v-299.04384c0-2.84672-2.8416-5.70368-5.72416-5.70368h-41.26208v-42.72128h41.26208c27.0848 0 48.44544 21.33504 48.44544 48.42496v299.04384c0 27.0848-21.36064 48.44544-48.44544 48.44544h-39.83872v88.32512z m0 0" p-id="20633"></path><path d="M190.83264 970.58816h-5.6832c-7.10656-1.46432-14.25408-5.6832-18.51904-12.83584-2.86208-4.25984-5.70368-9.94304-5.70368-17.09568V791.1424H88.2944c-48.42496 0-88.30464-39.87968-88.30464-88.28416V130.304c0-48.42496 39.87968-88.30464 88.30464-88.30464h703.55456c48.40448 0 88.27904 39.87968 88.27904 88.30464v572.54912c0 48.40448-39.87456 88.28416-88.27904 88.28416H461.43488l-253.52704 173.76256c-5.6832 2.84672-11.37152 5.68832-17.0752 5.68832zM88.2944 86.144c-24.18176 0-44.14464 19.93728-44.14464 44.16v572.54912c0 24.20224 19.95776 44.13952 44.14464 44.13952h116.79232v166.62016l243.5328-166.62016h343.22944c24.2432 0 44.13952-19.9424 44.13952-44.13952V130.304c0-24.22272-19.89632-44.16-44.13952-44.16H88.2944z m0 0" p-id="20634"></path><path d="M168.07424 261.32992h542.59712c12.83584 0 21.40672 9.96864 21.40672 21.36064 0 12.83072-9.99424 21.38112-21.40672 21.38112H168.07424c-12.83072 0-21.38112-9.96864-21.38112-21.38112-0.00512-11.392 9.96864-21.36064 21.38112-21.36064z m0 148.1216h542.59712c12.83584 0 21.40672 9.96864 21.40672 21.38112 0 12.79488-9.99424 21.34016-21.40672 21.34016H168.07424c-12.83072 0-21.38112-9.96864-21.38112-21.34016-0.00512-11.41248 9.96864-21.38112 21.38112-21.38112z m0 132.44928h293.36064c12.83072 0 21.38112 9.96864 21.38112 21.38112 0 12.78976-9.96864 21.36064-21.38112 21.36064H168.07424c-12.83072 0-21.38112-9.94816-21.38112-21.36064s9.96864-21.38112 21.38112-21.38112z m0 0" p-id="20635"></path></svg>