<?xml version="1.0" standalone="no"?><!DOCTYPE svg PUBLIC "-//W3C//DTD SVG 1.1//EN" "http://www.w3.org/Graphics/SVG/1.1/DTD/svg11.dtd"><svg t="1610503695239" class="icon" viewBox="0 0 1024 1024" version="1.1" xmlns="http://www.w3.org/2000/svg" p-id="18387" xmlns:xlink="http://www.w3.org/1999/xlink" width="32" height="32"><defs><style type="text/css"></style></defs><path d="M63.11 64.468v896.417h896.416V64.468H63.109z m845.074 845.075H114.451V115.81h793.732v793.733h0.001z" p-id="18388"></path><path d="M346.738 647.456c8.988 8.988 29.96 8.988 41.945 0 11.985-11.985 8.988-29.961 0-38.95L286.816 506.64l101.867-101.866c8.988-8.988 8.988-26.965 0-38.95-11.985-8.988-32.956-8.988-41.945 0l-122.84 122.84c-8.987 8.987-11.984 23.967 0 35.952l122.84 122.84z m398.48-137.82L643.35 611.502c-8.988 8.988-8.988 26.964 0 38.95 8.988 8.987 29.96 11.983 41.945 0l119.843-119.843c11.985-11.985 8.988-29.96 0-35.954L682.3 371.816c-5.993-14.98-23.97-14.98-35.954-2.996-11.984 11.985-8.988 29.96 0 38.95l98.872 101.866zM457.593 650.451c14.981 5.993 32.956-2.995 38.949-17.976l89.883-233.695c5.992-14.98-2.996-32.956-17.976-38.949-14.982-5.991-32.957 2.997-38.95 17.977l-89.883 233.694c-5.992 14.981 2.997 32.958 17.977 38.95z" p-id="18389"></path></svg>