<?xml version="1.0" standalone="no"?><!DOCTYPE svg PUBLIC "-//W3C//DTD SVG 1.1//EN" "http://www.w3.org/Graphics/SVG/1.1/DTD/svg11.dtd"><svg t="1610691457912" class="icon" viewBox="0 0 1024 1024" version="1.1" xmlns="http://www.w3.org/2000/svg" p-id="5277" xmlns:xlink="http://www.w3.org/1999/xlink" width="32" height="32"><defs><style type="text/css"></style></defs><path d="M94.53568 264.6016a81.92 81.92 0 0 0 0.94208 137.78944l350.86336 222.12608a122.88 122.88 0 0 0 131.31776 0.12288l352.6656-222.6176a81.92 81.92 0 0 0 0.8192-138.0352L579.01056 35.6352a122.88 122.88 0 0 0-134.02112 0.2048L94.53568 264.6016z m439.9104-160.27648l352.13312 228.43392-352.6656 222.57664a40.96 40.96 0 0 1-43.74528 0L139.264 333.2096l350.45376-228.80256a40.96 40.96 0 0 1 44.6464-0.08192z" fill="#373C43" p-id="5278"></path><path d="M517.3248 734.8224l-395.96032-234.37312a37.2736 37.2736 0 1 0-37.92896 64.06144l434.3808 257.14688 423.1168-257.35168a37.2736 37.2736 0 1 0-38.66624-63.65184l-384.98304 234.16832z" fill="#8D9399" p-id="5279"></path><path d="M121.36448 664.28928a37.2736 37.2736 0 1 0-37.92896 64.06144l434.3808 257.14688 423.1168-257.35168a37.2736 37.2736 0 1 0-38.66624-63.65184l-384.98304 234.16832-395.91936-234.37312z" fill="#8D9399" p-id="5280"></path></svg>