<?xml version="1.0" standalone="no"?><!DOCTYPE svg PUBLIC "-//W3C//DTD SVG 1.1//EN" "http://www.w3.org/Graphics/SVG/1.1/DTD/svg11.dtd"><svg t="1610503057464" class="icon" viewBox="0 0 1024 1024" version="1.1" xmlns="http://www.w3.org/2000/svg" p-id="11741" xmlns:xlink="http://www.w3.org/1999/xlink" width="32" height="32"><defs><style type="text/css"></style></defs><path d="M787.75 98.36H237.7c-50.42 0-91.67 41.44-91.67 92.09v690.69c0 27.63 22.92 46.05 45.84 46.05 4.58 0 13.75 0 18.33-4.61l279.61-138.14c4.58-4.61 13.75-4.61 18.34-4.61 4.58 0 13.75 0 18.34 4.61L806.1 922.58c13.75 4.61 22.92 4.61 27.5 4.61 22.92 0 45.84-18.42 45.84-46.05V190.45c-0.01-50.64-41.27-92.09-91.69-92.09zM638.7 615.65H386.76c-37.79 0-62.99-25.24-62.99-63.1s25.19-63.1 62.99-63.1H638.7c37.79 0 62.99 25.24 62.99 63.1s-25.2 63.1-62.99 63.1z m0-246.65H386.76c-37.79 0-62.99-25.24-62.99-63.1s25.19-63.1 62.99-63.1H638.7c37.79 0 62.99 25.24 62.99 63.1S676.49 369 638.7 369z" p-id="11742"></path></svg>