<?xml version="1.0" standalone="no"?><!DOCTYPE svg PUBLIC "-//W3C//DTD SVG 1.1//EN" "http://www.w3.org/Graphics/SVG/1.1/DTD/svg11.dtd"><svg t="1610518663343" class="icon" viewBox="0 0 1024 1024" version="1.1" xmlns="http://www.w3.org/2000/svg" p-id="29363" xmlns:xlink="http://www.w3.org/1999/xlink" width="32" height="32"><defs><style type="text/css"></style></defs><path d="M760.902271 1023.997h-1.656995a339.904004 339.904004 0 0 1-72.605788-64.143812C617.134692 890.287392 547.268897 823.132588 477.040102 755.674786c-47.279861 52.700846-91.096733 107.208686-140.304589 161.415527-7.317979 7.829977-35.173897 50.591852-57.75983 44.267871-19.182944-5.119985-10.509969-41.859877-8.250976-65.649808 7.527978-80.104765 14.665957-159.005534 23.097932-232.18432-74.834781-26.499922-146.297571-47.279861-227.757333-74.081783C45.467367 582.516293 0.686498 574.083318 0.0545 553.304379s37.55289-33.727901 54.47784-43.063874C356.190456 347.320982 649.959596 191.929438 947.401724 28.104918c10.32997-5.721983 52.339847-35.233897 69.263797-26.500923 15.388955 8.129976 1.957994 48.183859-1.655995 62.638817-76.671775 306.266103-150.573559 600.78824-226.101337 903.741352-5.209985 21.079938-10.35897 56.012836-28.005918 56.012836zM71.034292 548.185394c59.175827 19.573943 118.953652 37.943889 179.905473 57.819831a238.478301 238.478301 0 0 0 59.386826 19.574942 146.86957 146.86957 0 0 0 33.125903-26.199923C492.279058 479.222596 628.246659 369.002919 775.869227 251.857262c17.315949-13.55196 50.712851-52.098847 70.979792-49.388855 32.041906 4.517987 8.371975 39.149885-1.655995 52.700845C730.094361 413.572788 613.309703 571.975324 503.572025 724.355878c75.708778 72.877786 155.723544 152.079554 229.383328 225.559339a23.157932 23.157932 0 0 0 14.876956 9.937971C823.119089 661.416062 901.868858 357.257953 972.276652 59.423826 672.997528 223.549345 370.465415 384.059875 71.035292 548.185394z m310.182091 72.575787a187.012452 187.012452 0 0 0-47.85286 42.762875 265.249223 265.249223 0 0 0-4.967985 54.206841c-5.029985 57.217832-10.058971 106.003689-16.502952 161.414527C472.403116 721.043888 599.276744 520.479475 731.118358 339.189006c-113.079669 90.645734-233.509316 189.120446-349.811975 281.572175z" p-id="29364"></path></svg>