<?xml version="1.0" standalone="no"?><!DOCTYPE svg PUBLIC "-//W3C//DTD SVG 1.1//EN" "http://www.w3.org/Graphics/SVG/1.1/DTD/svg11.dtd"><svg t="1610503819893" class="icon" viewBox="0 0 1024 1024" version="1.1" xmlns="http://www.w3.org/2000/svg" p-id="19832" xmlns:xlink="http://www.w3.org/1999/xlink" width="32" height="32"><defs><style type="text/css"></style></defs><path d="M798.86 227.512H238.68c-29.752 0-52.5 22.76-52.5 52.516V768.42c0 28.012 22.752 52.524 52.5 52.524h560.176c28.012 0 52.532-24.512 52.532-52.524V280.032c0-28.012-22.764-52.52-52.532-52.52z m-441.128 89.28c29.764 0 56.016 24.504 56.016 56.008 0 31.508-24.504 56.016-56.016 56.016-29.756 0-56.016-24.508-56.016-56.016 0-31.504 26.26-56.012 56.016-56.012z m-40.256 425.372c-5.264 0-10.504-1.756-15.76-5.252-10.504-8.752-10.504-21.008-1.744-31.504l108.532-152.296c8.748-8.76 21.012-10.504 31.508-3.504l94.532 66.52 169.812-182.06c8.748-8.748 50.748-54.268 75.264-3.508v309.848c-0.008 1.76-462.144 1.76-462.144 1.76zM896 128H768V64h192v192h-64V128z m0 768V768h64v192H768v-64h128z m-768 0h128v64H64V768h64v128z m0-768v128H64V64h192v64H128z" p-id="19833"></path></svg>