<?xml version="1.0" standalone="no"?><!DOCTYPE svg PUBLIC "-//W3C//DTD SVG 1.1//EN" "http://www.w3.org/Graphics/SVG/1.1/DTD/svg11.dtd"><svg t="1626147697454" class="icon" viewBox="0 0 1024 1024" version="1.1" xmlns="http://www.w3.org/2000/svg" p-id="1619" xmlns:xlink="http://www.w3.org/1999/xlink" width="200" height="200"><defs><style type="text/css"></style></defs><path d="M808.5 229.8H216c-14.3 0-25.8 11.6-25.8 25.8v516.3c0 14.3 11.6 25.8 25.8 25.8h592.6c14.3 0 25.8-11.6 25.8-25.8V255.6c0-14.3-11.6-25.8-25.9-25.8zM772 746.1H252.6c-5.9 0-10.8-4.8-10.8-10.8v-443c0-6 4.9-10.9 10.9-10.9h519.9c5.6 0 10.2 4.5 10.2 10.2v443.3c0 2-0.8 3.9-2.3 5.3l-2.4 2.2c-1.3 1.2-2.8 2.2-4.4 3l-1.7 0.7z" p-id="1620"></path><path d="M753.3 684.3c-4.7 7.7-13.1 12.4-22.1 12.4H293.3c-9.7 0-18.6-5.4-23-14-4.4-8.6-3.6-19 2-26.9l101.1-140.6c8.2-11.4 24-14.2 35.6-6.2l82.1 56.5L596 431.9c5.4-6.9 14-10.6 22.8-9.8 8.8 0.8 16.5 6.1 20.5 13.9l114.9 223c4.1 8.1 3.7 17.6-0.9 25.3zM369.4 385.5c0 28.9 23.1 52.3 51.7 52.3 28.5 0 51.7-23.4 51.7-52.3s-23.1-52.3-51.7-52.3c-28.6-0.1-51.7 23.3-51.7 52.3z" p-id="1621"></path><path d="M114.9 137.5c0-12.4 10-22.4 22.4-22.4H240c9.3 0 16.8-7.5 16.8-16.8V81c0-9.3-7.5-16.8-16.8-16.8H86.4C74 64.2 64 74.3 64 86.6v153.7c0 8.5 6.9 15.4 15.4 15.4h20.1c8.5 0 15.4-6.9 15.4-15.4V137.5zM886 115.1c12.4 0 22.4 10 22.4 22.4v105.2c0 7.2 5.8 13 13 13h24.8c7.2 0 13-5.8 13-13V86.6c0-12.4-10-22.4-22.4-22.4H781c-6.7 0-12.1 5.4-12.1 12.1V103c0 6.7 5.4 12.1 12.1 12.1h105zM137.3 908.7c-12.4 0-22.4-10-22.4-22.4V780.7c0-7.1-5.8-12.9-12.9-12.9H76.9c-7.1 0-12.9 5.8-12.9 12.9v156.5c0 12.4 10 22.4 22.4 22.4h158.1c6.8 0 12.3-5.5 12.3-12.3V921c0-6.8-5.5-12.3-12.3-12.3H137.3zM908.5 886.3c0 12.4-10 22.4-22.4 22.4H781.9c-7.2 0-13 5.8-13 13v24.9c0 7.2 5.8 13 13 13H937c12.4 0 22.4-10 22.4-22.4V780.4c0-7-5.7-12.6-12.6-12.6h-25.6c-7 0-12.6 5.7-12.6 12.6v105.9z" p-id="1622"></path></svg>