<?xml version="1.0" standalone="no"?><!DOCTYPE svg PUBLIC "-//W3C//DTD SVG 1.1//EN" "http://www.w3.org/Graphics/SVG/1.1/DTD/svg11.dtd"><svg t="1610446152512" class="icon" viewBox="0 0 1048 1024" version="1.1" xmlns="http://www.w3.org/2000/svg" p-id="4046" xmlns:xlink="http://www.w3.org/1999/xlink" width="32.75" height="32"><defs><style type="text/css"></style></defs><path d="M45.585 182.156h136.588v45.451c0 25.135 20.34 45.568 45.475 45.568h273.268a45.568 45.568 0 0 0 45.475-45.638v-45.381h455.33a45.568 45.568 0 0 0 0-91.043h-455.33V45.545c0-25.135-20.34-45.498-45.475-45.545H227.624a45.568 45.568 0 0 0-45.475 45.568v45.545H45.539a45.545 45.545 0 0 0 0 91.043z m227.607-91.113h182.156v91.043H273.237V91.043z m728.53 364.218H865.134v-45.475a45.568 45.568 0 0 0-45.475-45.614H546.391a45.545 45.545 0 0 0-45.475 45.614v45.475H45.562a45.545 45.545 0 1 0 0 91.113h455.354v45.475c0 25.227 20.34 45.638 45.475 45.638h273.291a45.545 45.545 0 0 0 45.475-45.615v-45.428h136.611a45.545 45.545 0 1 0 0-91.113v-0.07z m-227.608 91.183H591.959v-91.23h182.132v91.253z m227.608 273.035H546.391v-45.475c0-25.134-20.34-45.521-45.475-45.544H227.624a45.545 45.545 0 0 0-45.475 45.614v45.498H45.539a45.545 45.545 0 0 0 0 91.02h136.61v45.568c0 25.135 20.34 45.545 45.475 45.545h273.269a45.568 45.568 0 0 0 45.475-45.545v-45.568h455.33a45.568 45.568 0 0 0 0-91.02v-0.093zM455.347 910.592H273.237v-91.02h182.133v91.02z" p-id="4047"></path></svg>