<?xml version="1.0" standalone="no"?><!DOCTYPE svg PUBLIC "-//W3C//DTD SVG 1.1//EN" "http://www.w3.org/Graphics/SVG/1.1/DTD/svg11.dtd"><svg t="1610691447174" class="icon" viewBox="0 0 1228 1024" version="1.1" xmlns="http://www.w3.org/2000/svg" p-id="4517" xmlns:xlink="http://www.w3.org/1999/xlink" width="38.375" height="32"><defs><style type="text/css"></style></defs><path d="M1137.766 948.224a27.136 27.136 0 0 1-54.17 0 243.814 243.814 0 0 0-243.711-243.917 233.882 233.882 0 0 0-242.381 216.781 51.61 51.61 0 0 1-52.94 54.17H108.338A108.34 108.34 0 0 1 0 866.918V108.34C0 48.538 48.538 0 108.34 0h650.24c59.8 0 108.338 48.538 108.338 108.34v219.442a187.904 187.904 0 0 1 78.848 342.63 297.37 297.37 0 0 1 191.898 277.812zM812.75 108.237a54.272 54.272 0 0 0-54.272-54.17H108.339a54.272 54.272 0 0 0-54.17 54.272v758.477c0 29.9 24.27 54.17 54.273 54.17H544.46A296.55 296.55 0 0 1 733.9 670.31a187.904 187.904 0 0 1 78.848-342.63V108.34zM975.258 514.56a135.475 135.475 0 1 0-270.95 0 135.475 135.475 0 0 0 270.95 0zM677.274 270.848h-487.63a27.136 27.136 0 1 1 0-54.272h487.63a27.136 27.136 0 1 1 0 54.272z m-487.63 162.611h216.68a27.136 27.136 0 1 1 0 54.17h-216.68a27.136 27.136 0 1 1 0-54.272z" fill="#515151" p-id="4518"></path></svg>