<?xml version="1.0" standalone="no"?><!DOCTYPE svg PUBLIC "-//W3C//DTD SVG 1.1//EN" "http://www.w3.org/Graphics/SVG/1.1/DTD/svg11.dtd"><svg t="1610522032985" class="icon" viewBox="0 0 1024 1024" version="1.1" xmlns="http://www.w3.org/2000/svg" p-id="32482" xmlns:xlink="http://www.w3.org/1999/xlink" width="32" height="32"><defs><style type="text/css"></style></defs><path d="M817.289 329.045h60.62c0-101.58-81.92-182.954-182.954-182.954v60.62c67.174 0 122.334 54.614 122.334 122.334zM206.71 694.955h-61.166c0 101.58 81.92 182.954 182.954 182.954v-60.62c-66.628 0-121.788-54.614-121.788-122.334z m518.827-58.437l-34.952 99.943h73.728l-34.407-99.943z" p-id="32483"></path><path d="M879.002 419.703H635.426v121.788c0 51.883-40.96 92.297-92.296 92.297H420.796v244.667c0 33.86 27.306 60.621 60.62 60.621h397.04c33.86 0 60.62-27.306 60.62-60.62V480.87c0.546-33.86-26.214-61.167-60.074-61.167zM803.089 849.51l-22.391-65.536H673.655l-22.937 65.536h-60.075l98.304-263.782h77.551l97.758 263.782h-61.167z" p-id="32484"></path><path d="M542.583 84.924H144.998c-33.86 0-60.62 27.306-60.62 60.62h0.546V543.13c0 33.86 27.306 60.62 60.62 60.62h397.04c33.86 0 60.62-27.306 60.62-60.62V145.545c0.546-33.86-26.76-60.621-60.62-60.621zM489.61 264.055h-117.42v210.262h-56.797V264.055H197.973v-49.698H489.61v49.698z" p-id="32485"></path></svg>