<?xml version="1.0" standalone="no"?><!DOCTYPE svg PUBLIC "-//W3C//DTD SVG 1.1//EN" "http://www.w3.org/Graphics/SVG/1.1/DTD/svg11.dtd"><svg t="1610518455613" class="icon" viewBox="0 0 1024 1024" version="1.1" xmlns="http://www.w3.org/2000/svg" p-id="28588" xmlns:xlink="http://www.w3.org/1999/xlink" width="32" height="32"><defs><style type="text/css"></style></defs><path d="M512.09 512h-0.18zM510.53 511.18l2.94 1.64a28 28 0 0 0-2.94-1.64zM512.09 512h-0.18z" p-id="28589"></path><path d="M510.53 511.18l2.94 1.64a28 28 0 0 0-2.94-1.64z" p-id="28590"></path><path d="M844.69 104.4h-474a80 80 0 0 0-80 80v101.2H179.31a80 80 0 0 0-80 80v474a80 80 0 0 0 80 80h474a80 80 0 0 0 80-80V738.4h111.38a80 80 0 0 0 80-80v-474a80 80 0 0 0-80-80zM669.31 831.6a24 24 0 0 1-24 24h-458a24 24 0 0 1-24-24v-458a24 24 0 0 1 24-24h458a24 24 0 0 1 24 24z m191.38-181.2a24 24 0 0 1-24 24H733.31V365.6a80 80 0 0 0-80-80H354.69v-93.2a24 24 0 0 1 24-24h458a24 24 0 0 1 24 24z" p-id="28591"></path></svg>