<?xml version="1.0" standalone="no"?><!DOCTYPE svg PUBLIC "-//W3C//DTD SVG 1.1//EN" "http://www.w3.org/Graphics/SVG/1.1/DTD/svg11.dtd"><svg t="1610503441585" class="icon" viewBox="0 0 1102 1024" version="1.1" xmlns="http://www.w3.org/2000/svg" p-id="15165" xmlns:xlink="http://www.w3.org/1999/xlink" width="34.4375" height="32"><defs><style type="text/css"></style></defs><path d="M1063.382161 945.230951a39.384524 39.384524 0 0 1 0 78.769049H39.384524a39.384524 39.384524 0 0 1 0-78.769049h1023.997637z m0-236.307147a39.384524 39.384524 0 0 1 0 78.769049H39.384524a39.384524 39.384524 0 0 1 0-78.769049h1023.997637z m-787.69049-708.921441a50.412191 50.412191 0 0 1 45.292204 27.33286L551.383343 551.385706H461.35032l-72.703832-157.38056H165.415003L94.207783 551.385706H0L231.974849 28.201683A48.83681 48.83681 0 0 1 275.691671 0.002363z m787.69049 472.614294a39.384524 39.384524 0 0 1 0 78.769049h-315.076196a39.384524 39.384524 0 0 1 0-78.769049h315.076196z m-787.69049-347.450275l-76.405977 190.46356h155.096257L275.691671 125.245151zM1063.382161 236.30951a39.384524 39.384524 0 0 1 0 78.769049h-315.076196a39.384524 39.384524 0 0 1 0-78.769049h315.076196z m0-236.307147a39.384524 39.384524 0 0 1 0 78.769049h-315.076196a39.384524 39.384524 0 0 1 0-78.769049h315.076196z" p-id="15166"></path></svg>