<?xml version="1.0" standalone="no"?><!DOCTYPE svg PUBLIC "-//W3C//DTD SVG 1.1//EN" "http://www.w3.org/Graphics/SVG/1.1/DTD/svg11.dtd"><svg t="1625129297779" class="icon" viewBox="0 0 1024 1024" version="1.1" xmlns="http://www.w3.org/2000/svg" p-id="11408" xmlns:xlink="http://www.w3.org/1999/xlink" width="200" height="200"><defs><style type="text/css"></style></defs><path d="M374.8 155c17.4 0 31.5 14.1 31.5 31.5v189c0 17.4-14.1 31.5-31.5 31.5h-189c-17.4 0-31.5-14.1-31.5-31.5v-189c0-17.4 14.1-31.5 31.5-31.5h189m0-42h-189c-40.5 0-73.5 33-73.5 73.5v189c0 40.5 33 73.5 73.5 73.5h189c40.5 0 73.5-33 73.5-73.5v-189c0-40.5-32.9-73.5-73.5-73.5zM374.8 617c17.4 0 31.5 14.1 31.5 31.5v189c0 17.4-14.1 31.5-31.5 31.5h-189c-17.4 0-31.5-14.1-31.5-31.5v-189c0-17.4 14.1-31.5 31.5-31.5h189m0-42h-189c-40.5 0-73.5 33-73.5 73.5v189c0 40.5 33 73.5 73.5 73.5h189c40.5 0 73.5-33 73.5-73.5v-189c0-40.5-32.9-73.5-73.5-73.5zM911.7 214.1c0 11.6-9.4 21-21 21h-336c-11.6 0-21-9.4-21-21s9.4-21 21-21h336c11.6 0 21 9.4 21 21zM911.7 361.1c0 11.6-9.4 21-21 21h-336c-11.6 0-21-9.4-21-21s9.4-21 21-21h336c11.6 0 21 9.4 21 21zM911.7 655.1c0 11.6-9.4 21-21 21h-336c-11.6 0-21-9.4-21-21s9.4-21 21-21h336c11.6 0 21 9.4 21 21zM911.7 802.1c0 11.6-9.4 21-21 21h-336c-11.6 0-21-9.4-21-21s9.4-21 21-21h336c11.6 0 21 9.4 21 21z" p-id="11409"></path></svg>