<?xml version="1.0" standalone="no"?><!DOCTYPE svg PUBLIC "-//W3C//DTD SVG 1.1//EN" "http://www.w3.org/Graphics/SVG/1.1/DTD/svg11.dtd"><svg t="1610503996060" class="icon" viewBox="0 0 1024 1024" version="1.1" xmlns="http://www.w3.org/2000/svg" p-id="21378" xmlns:xlink="http://www.w3.org/1999/xlink" width="32" height="32"><defs><style type="text/css"></style></defs><path d="M73.142857 218.743223C73.142857 219.435154 73.136421 219.428571 73.828133 219.428571L218.743296 219.428571C219.435008 219.428571 219.428571 219.435154 219.428571 218.743223L219.428571 73.828206C219.428571 73.136274 219.435008 73.142857 218.743296 73.142857L73.828133 73.142857C73.136421 73.142857 73.142857 73.136274 73.142857 73.828206L73.142857 218.743223ZM73.828133 0 218.743296 0C259.51744 0 292.571429 32.427886 292.571429 73.828206L292.571429 218.743223C292.571429 259.51744 260.143323 292.571429 218.743296 292.571429L73.828133 292.571429C33.053989 292.571429 0 260.143543 0 218.743223L0 73.828206C0 33.053989 32.428105 0 73.828133 0ZM438.857143 951.53152C438.857143 950.583589 439.134501 950.857143 439.542418 950.857143L584.457582 950.857143C585.452544 950.857143 585.142857 951.16288 585.142857 951.53152L585.142857 657.611337C585.142857 658.559269 584.865499 658.285714 584.457582 658.285714L439.542418 658.285714C438.547456 658.285714 438.857143 657.979977 438.857143 657.611337L438.857143 951.53152ZM439.542418 585.142857 584.457582 585.142857C625.231726 585.142857 658.285714 618.128823 658.285714 657.611337L658.285714 951.53152C658.285714 991.55456 625.857609 1024 584.457582 1024L439.542418 1024C398.768274 1024 365.714286 991.014034 365.714286 951.53152L365.714286 657.611337C365.714286 617.588297 398.142391 585.142857 439.542418 585.142857ZM73.142857 951.037074C73.142857 950.754743 73.246793 950.857143 73.828133 950.857143L218.743296 950.857143C219.627959 950.857143 219.428571 951.05536 219.428571 951.037074L219.428571 438.677211C219.428571 438.959543 219.324635 438.857143 218.743296 438.857143L73.828133 438.857143C72.94347 438.857143 73.142857 438.658926 73.142857 438.677211L73.142857 951.037074ZM73.828133 365.714286 218.743296 365.714286C259.51744 365.714286 292.571429 398.358674 292.571429 438.677211L292.571429 951.037074C292.571429 991.332937 260.143323 1024 218.743296 1024L73.828133 1024C33.053989 1024 0 991.355611 0 951.037074L0 438.677211C0 398.381349 32.428105 365.714286 73.828133 365.714286ZM804.571429 585.322789C804.571429 585.040457 804.675365 585.142857 805.256704 585.142857L950.171867 585.142857C951.05653 585.142857 950.857143 585.341074 950.857143 585.322789L950.857143 72.962926C950.857143 73.245257 950.753207 73.142857 950.171867 73.142857L805.256704 73.142857C804.372041 73.142857 804.571429 72.94464 804.571429 72.962926L804.571429 585.322789ZM805.256704 0 950.171867 0C990.946011 0 1024 32.644389 1024 72.962926L1024 585.322789C1024 625.618651 991.571895 658.285714 950.171867 658.285714L805.256704 658.285714C764.48256 658.285714 731.428571 625.641326 731.428571 585.322789L731.428571 72.962926C731.428571 32.667063 763.856677 0 805.256704 0ZM804.571429 950.171794C804.571429 950.863726 804.564992 950.857143 805.256704 950.857143L950.171867 950.857143C950.863579 950.857143 950.857143 950.863726 950.857143 950.171794L950.857143 805.256777C950.857143 804.564846 950.863579 804.571429 950.171867 804.571429L805.256704 804.571429C804.564992 804.571429 804.571429 804.564846 804.571429 805.256777L804.571429 950.171794ZM805.256704 731.428571 950.171867 731.428571C990.946011 731.428571 1024 763.856457 1024 805.256777L1024 950.171794C1024 990.946011 991.571895 1024 950.171867 1024L805.256704 1024C764.48256 1024 731.428571 991.572114 731.428571 950.171794L731.428571 805.256777C731.428571 764.48256 763.856677 731.428571 805.256704 731.428571ZM438.857143 438.642834C438.857143 439.061943 438.649271 438.857143 439.542418 438.857143L584.457582 438.857143C585.2544 438.857143 585.142857 438.96832 585.142857 438.642834L585.142857 73.357166C585.142857 72.938057 585.350729 73.142857 584.457582 73.142857L439.542418 73.142857C438.7456 73.142857 438.857143 73.03168 438.857143 73.357166L438.857143 438.642834ZM439.542418 0 584.457582 0C625.231726 0 658.285714 32.027794 658.285714 73.357166L658.285714 438.642834C658.285714 479.156663 625.857609 512 584.457582 512L439.542418 512C398.768274 512 365.714286 479.972206 365.714286 438.642834L365.714286 73.357166C365.714286 32.843337 398.142391 0 439.542418 0Z" p-id="21379"></path></svg>