<?xml version="1.0" standalone="no"?><!DOCTYPE svg PUBLIC "-//W3C//DTD SVG 1.1//EN" "http://www.w3.org/Graphics/SVG/1.1/DTD/svg11.dtd"><svg t="1610441769285" class="icon" viewBox="0 0 1072 1024" version="1.1" xmlns="http://www.w3.org/2000/svg" p-id="2550" xmlns:xlink="http://www.w3.org/1999/xlink" width="33.5" height="32"><defs><style type="text/css"></style></defs><path d="M292.571429 926.47619h487.619047a48.761905 48.761905 0 1 1 0 97.52381H292.571429a48.761905 48.761905 0 1 1 0-97.52381zM292.571429 292.571429a48.761905 48.761905 0 0 1 48.761904 48.761904v195.047619a48.761905 48.761905 0 1 1-97.523809 0V341.333333a48.761905 48.761905 0 0 1 48.761905-48.761904zM487.619048 195.047619a48.761905 48.761905 0 0 1 48.761904 48.761905v292.571428a48.761905 48.761905 0 1 1-97.523809 0V243.809524a48.761905 48.761905 0 0 1 48.761905-48.761905zM633.904762 341.333333a48.761905 48.761905 0 0 1 48.761905 48.761905v146.285714a48.761905 48.761905 0 1 1-97.52381 0V390.095238a48.761905 48.761905 0 0 1 48.761905-48.761905zM828.952381 243.809524a48.761905 48.761905 0 0 1 48.761905 48.761905v243.809523a48.761905 48.761905 0 1 1-97.52381 0V292.571429a48.761905 48.761905 0 0 1 48.761905-48.761905z" p-id="2551"></path><path d="M536.380952 731.428571a48.761905 48.761905 0 0 1 48.761905 48.761905v146.285714a48.761905 48.761905 0 1 1-97.523809 0v-146.285714a48.761905 48.761905 0 0 1 48.761904-48.761905z" p-id="2552"></path><path d="M97.52381 0h877.714285a97.52381 97.52381 0 0 1 97.52381 97.52381v585.142857a97.52381 97.52381 0 0 1-97.52381 97.523809H97.52381a97.52381 97.52381 0 0 1-97.52381-97.523809V97.52381a97.52381 97.52381 0 0 1 97.52381-97.52381z m926.47619 97.52381a48.761905 48.761905 0 0 0-48.761905-48.761905H97.52381a48.761905 48.761905 0 0 0-48.761905 48.761905v585.142857a48.761905 48.761905 0 0 0 48.761905 48.761904h877.714285a48.761905 48.761905 0 0 0 48.761905-48.761904V97.52381z" p-id="2553"></path></svg>